<mxfile host="app.diagrams.net" modified="2024-03-27T11:53:22.590Z" agent="Mozilla/5.0 (Windows NT 10.0; Win64; x64) AppleWebKit/537.36 (KHTML, like Gecko) Chrome/122.0.0.0 Safari/537.36 Edg/122.0.0.0" etag="NdfHf3L9ltpg-L49-ldy" version="24.2.0" type="device">
  <diagram name="Page-1" id="rbL-JoSqbERRH7bWoa-g">
    <mxGraphModel dx="1042" dy="569" grid="1" gridSize="10" guides="1" tooltips="1" connect="1" arrows="1" fold="1" page="1" pageScale="1" pageWidth="850" pageHeight="1100" math="0" shadow="0">
      <root>
        <mxCell id="0" />
        <mxCell id="1" parent="0" />
        <mxCell id="C6mVtcOCXIdBBs2ZBvsf-11" value="" style="group" vertex="1" connectable="0" parent="1">
          <mxGeometry x="280" y="90" width="150" height="210" as="geometry" />
        </mxCell>
        <mxCell id="C6mVtcOCXIdBBs2ZBvsf-24" value="" style="group" vertex="1" connectable="0" parent="C6mVtcOCXIdBBs2ZBvsf-11">
          <mxGeometry x="40" y="10" width="150" height="140" as="geometry" />
        </mxCell>
        <mxCell id="C6mVtcOCXIdBBs2ZBvsf-4" value="Web Server" style="verticalAlign=top;align=left;shape=cube;size=10;direction=south;fontStyle=0;html=1;boundedLbl=1;spacingLeft=5;whiteSpace=wrap;" vertex="1" parent="C6mVtcOCXIdBBs2ZBvsf-24">
          <mxGeometry width="150" height="140" as="geometry" />
        </mxCell>
        <mxCell id="C6mVtcOCXIdBBs2ZBvsf-8" value="Backend API" style="html=1;dropTarget=0;whiteSpace=wrap;" vertex="1" parent="C6mVtcOCXIdBBs2ZBvsf-24">
          <mxGeometry x="10" y="40" width="110" height="70" as="geometry" />
        </mxCell>
        <mxCell id="C6mVtcOCXIdBBs2ZBvsf-9" value="" style="shape=module;jettyWidth=8;jettyHeight=4;" vertex="1" parent="C6mVtcOCXIdBBs2ZBvsf-8">
          <mxGeometry x="1" width="20" height="20" relative="1" as="geometry">
            <mxPoint x="-27" y="7" as="offset" />
          </mxGeometry>
        </mxCell>
        <mxCell id="C6mVtcOCXIdBBs2ZBvsf-17" value="" style="group" vertex="1" connectable="0" parent="1">
          <mxGeometry x="320" y="320" width="150" height="120" as="geometry" />
        </mxCell>
        <mxCell id="C6mVtcOCXIdBBs2ZBvsf-14" value="Email Server" style="verticalAlign=top;align=left;shape=cube;size=10;direction=south;fontStyle=0;html=1;boundedLbl=1;spacingLeft=5;whiteSpace=wrap;" vertex="1" parent="C6mVtcOCXIdBBs2ZBvsf-17">
          <mxGeometry width="150" height="120" as="geometry" />
        </mxCell>
        <mxCell id="C6mVtcOCXIdBBs2ZBvsf-15" value="Email Services" style="html=1;dropTarget=0;whiteSpace=wrap;" vertex="1" parent="C6mVtcOCXIdBBs2ZBvsf-17">
          <mxGeometry x="10" y="40" width="110" height="70" as="geometry" />
        </mxCell>
        <mxCell id="C6mVtcOCXIdBBs2ZBvsf-16" value="" style="shape=module;jettyWidth=8;jettyHeight=4;" vertex="1" parent="C6mVtcOCXIdBBs2ZBvsf-15">
          <mxGeometry x="1" width="20" height="20" relative="1" as="geometry">
            <mxPoint x="-27" y="7" as="offset" />
          </mxGeometry>
        </mxCell>
        <mxCell id="C6mVtcOCXIdBBs2ZBvsf-18" value="" style="group" vertex="1" connectable="0" parent="1">
          <mxGeometry x="50" y="120" width="150" height="110" as="geometry" />
        </mxCell>
        <mxCell id="C6mVtcOCXIdBBs2ZBvsf-25" value="" style="group" vertex="1" connectable="0" parent="C6mVtcOCXIdBBs2ZBvsf-18">
          <mxGeometry width="150" height="110" as="geometry" />
        </mxCell>
        <mxCell id="C6mVtcOCXIdBBs2ZBvsf-19" value="Client Devices - Browser" style="verticalAlign=top;align=left;shape=cube;size=10;direction=south;fontStyle=0;html=1;boundedLbl=1;spacingLeft=5;whiteSpace=wrap;" vertex="1" parent="C6mVtcOCXIdBBs2ZBvsf-25">
          <mxGeometry width="150" height="110" as="geometry" />
        </mxCell>
        <mxCell id="C6mVtcOCXIdBBs2ZBvsf-20" value="Front-end web app" style="html=1;dropTarget=0;whiteSpace=wrap;" vertex="1" parent="C6mVtcOCXIdBBs2ZBvsf-25">
          <mxGeometry x="10" y="49.99776556776556" width="110" height="36.66666666666667" as="geometry" />
        </mxCell>
        <mxCell id="C6mVtcOCXIdBBs2ZBvsf-21" value="" style="shape=module;jettyWidth=8;jettyHeight=4;" vertex="1" parent="C6mVtcOCXIdBBs2ZBvsf-20">
          <mxGeometry x="1" width="20" height="20" relative="1" as="geometry">
            <mxPoint x="-27" y="7" as="offset" />
          </mxGeometry>
        </mxCell>
        <mxCell id="C6mVtcOCXIdBBs2ZBvsf-26" value="" style="group" vertex="1" connectable="0" parent="1">
          <mxGeometry x="50" y="300" width="150" height="120" as="geometry" />
        </mxCell>
        <mxCell id="C6mVtcOCXIdBBs2ZBvsf-27" value="Paypal Server" style="verticalAlign=top;align=left;shape=cube;size=10;direction=south;fontStyle=0;html=1;boundedLbl=1;spacingLeft=5;whiteSpace=wrap;" vertex="1" parent="C6mVtcOCXIdBBs2ZBvsf-26">
          <mxGeometry width="150" height="120" as="geometry" />
        </mxCell>
        <mxCell id="C6mVtcOCXIdBBs2ZBvsf-28" value="Payment Services" style="html=1;dropTarget=0;whiteSpace=wrap;" vertex="1" parent="C6mVtcOCXIdBBs2ZBvsf-26">
          <mxGeometry x="10" y="40" width="110" height="70" as="geometry" />
        </mxCell>
        <mxCell id="C6mVtcOCXIdBBs2ZBvsf-29" value="" style="shape=module;jettyWidth=8;jettyHeight=4;" vertex="1" parent="C6mVtcOCXIdBBs2ZBvsf-28">
          <mxGeometry x="1" width="20" height="20" relative="1" as="geometry">
            <mxPoint x="-27" y="7" as="offset" />
          </mxGeometry>
        </mxCell>
        <mxCell id="C6mVtcOCXIdBBs2ZBvsf-30" value="" style="group" vertex="1" connectable="0" parent="1">
          <mxGeometry x="590" y="105" width="150" height="140" as="geometry" />
        </mxCell>
        <mxCell id="C6mVtcOCXIdBBs2ZBvsf-10" value="Database Server" style="verticalAlign=top;align=left;shape=cube;size=10;direction=south;fontStyle=0;html=1;boundedLbl=1;spacingLeft=5;whiteSpace=wrap;" vertex="1" parent="C6mVtcOCXIdBBs2ZBvsf-30">
          <mxGeometry width="150" height="140" as="geometry" />
        </mxCell>
        <mxCell id="C6mVtcOCXIdBBs2ZBvsf-12" value="Database Management System" style="html=1;dropTarget=0;whiteSpace=wrap;" vertex="1" parent="C6mVtcOCXIdBBs2ZBvsf-30">
          <mxGeometry x="10" y="50" width="115" height="80" as="geometry" />
        </mxCell>
        <mxCell id="C6mVtcOCXIdBBs2ZBvsf-13" value="" style="shape=module;jettyWidth=8;jettyHeight=4;" vertex="1" parent="C6mVtcOCXIdBBs2ZBvsf-12">
          <mxGeometry x="1" width="20" height="20" relative="1" as="geometry">
            <mxPoint x="-27" y="7" as="offset" />
          </mxGeometry>
        </mxCell>
        <mxCell id="C6mVtcOCXIdBBs2ZBvsf-31" value="HTTPS" style="rounded=0;orthogonalLoop=1;jettySize=auto;html=1;entryX=0;entryY=0;entryDx=75;entryDy=150;entryPerimeter=0;endArrow=none;endFill=0;" edge="1" parent="1" source="C6mVtcOCXIdBBs2ZBvsf-19" target="C6mVtcOCXIdBBs2ZBvsf-4">
          <mxGeometry relative="1" as="geometry" />
        </mxCell>
        <mxCell id="C6mVtcOCXIdBBs2ZBvsf-33" value="SMTP" style="rounded=0;orthogonalLoop=1;jettySize=auto;html=1;entryX=0;entryY=0;entryDx=0;entryDy=70;entryPerimeter=0;endArrow=none;endFill=0;" edge="1" parent="1" source="C6mVtcOCXIdBBs2ZBvsf-4" target="C6mVtcOCXIdBBs2ZBvsf-14">
          <mxGeometry relative="1" as="geometry" />
        </mxCell>
        <mxCell id="C6mVtcOCXIdBBs2ZBvsf-34" value="mongodb" style="edgeStyle=none;rounded=0;orthogonalLoop=1;jettySize=auto;html=1;entryX=0.429;entryY=0.989;entryDx=0;entryDy=0;entryPerimeter=0;strokeColor=default;align=center;verticalAlign=middle;fontFamily=Helvetica;fontSize=11;fontColor=default;labelBackgroundColor=default;endArrow=none;endFill=0;" edge="1" parent="1" source="C6mVtcOCXIdBBs2ZBvsf-4" target="C6mVtcOCXIdBBs2ZBvsf-10">
          <mxGeometry relative="1" as="geometry" />
        </mxCell>
        <mxCell id="C6mVtcOCXIdBBs2ZBvsf-37" value="HTTPS" style="edgeStyle=none;rounded=0;orthogonalLoop=1;jettySize=auto;html=1;strokeColor=default;align=center;verticalAlign=middle;fontFamily=Helvetica;fontSize=11;fontColor=default;labelBackgroundColor=default;endArrow=none;endFill=0;" edge="1" parent="1" source="C6mVtcOCXIdBBs2ZBvsf-19" target="C6mVtcOCXIdBBs2ZBvsf-27">
          <mxGeometry relative="1" as="geometry" />
        </mxCell>
      </root>
    </mxGraphModel>
  </diagram>
</mxfile>
